# Placeholder banana rifle mesh (authored: source asset file was empty)
o BananaRifle
v -0.0300 -0.0700 0.2750
v -0.0300 -0.0700 0.6250
v -0.0300 0.0700 0.2750
v -0.0300 0.0700 0.6250
v 0.0300 -0.0700 0.2750
v 0.0300 -0.0700 0.6250
v 0.0300 0.0700 0.2750
v 0.0300 0.0700 0.6250
v -0.0350 -0.0600 -0.2000
v -0.0350 -0.0600 0.3000
v -0.0350 0.1000 -0.2000
v -0.0350 0.1000 0.3000
v 0.0350 -0.0600 -0.2000
v 0.0350 -0.0600 0.3000
v 0.0350 0.1000 -0.2000
v 0.0350 0.1000 0.3000
v -0.0225 0.0075 -0.8000
v -0.0225 0.0075 -0.2000
v -0.0225 0.0525 -0.8000
v -0.0225 0.0525 -0.2000
v 0.0225 0.0075 -0.8000
v 0.0225 0.0075 -0.2000
v 0.0225 0.0525 -0.8000
v 0.0225 0.0525 -0.2000
v -0.0250 -0.2100 0.1350
v -0.0250 -0.2100 0.2250
v -0.0250 -0.0500 0.1350
v -0.0250 -0.0500 0.2250
v 0.0250 -0.2100 0.1350
v 0.0250 -0.2100 0.2250
v 0.0250 -0.0500 0.1350
v 0.0250 -0.0500 0.2250
v -0.0250 -0.1900 -0.0800
v -0.0250 -0.1900 0.0400
v -0.0250 -0.0500 -0.0800
v -0.0250 -0.0500 0.0400
v 0.0250 -0.1900 -0.0800
v 0.0250 -0.1900 0.0400
v 0.0250 -0.0500 -0.0800
v 0.0250 -0.0500 0.0400
v -0.0100 0.1000 -0.1750
v -0.0100 0.1000 0.0750
v -0.0100 0.1300 -0.1750
v -0.0100 0.1300 0.0750
v 0.0100 0.1000 -0.1750
v 0.0100 0.1000 0.0750
v 0.0100 0.1300 -0.1750
v 0.0100 0.1300 0.0750
vn -1 0 0
vn 1 0 0
vn 0 -1 0
vn 0 1 0
vn 0 0 -1
vn 0 0 1
vn -1 0 0
vn 1 0 0
vn 0 -1 0
vn 0 1 0
vn 0 0 -1
vn 0 0 1
vn -1 0 0
vn 1 0 0
vn 0 -1 0
vn 0 1 0
vn 0 0 -1
vn 0 0 1
vn -1 0 0
vn 1 0 0
vn 0 -1 0
vn 0 1 0
vn 0 0 -1
vn 0 0 1
vn -1 0 0
vn 1 0 0
vn 0 -1 0
vn 0 1 0
vn 0 0 -1
vn 0 0 1
vn -1 0 0
vn 1 0 0
vn 0 -1 0
vn 0 1 0
vn 0 0 -1
vn 0 0 1
f 1//1 2//1 4//1
f 1//1 4//1 3//1
f 5//2 7//2 8//2
f 5//2 8//2 6//2
f 1//3 5//3 6//3
f 1//3 6//3 2//3
f 3//4 4//4 8//4
f 3//4 8//4 7//4
f 1//5 3//5 7//5
f 1//5 7//5 5//5
f 2//6 6//6 8//6
f 2//6 8//6 4//6
f 9//7 10//7 12//7
f 9//7 12//7 11//7
f 13//8 15//8 16//8
f 13//8 16//8 14//8
f 9//9 13//9 14//9
f 9//9 14//9 10//9
f 11//10 12//10 16//10
f 11//10 16//10 15//10
f 9//11 11//11 15//11
f 9//11 15//11 13//11
f 10//12 14//12 16//12
f 10//12 16//12 12//12
f 17//13 18//13 20//13
f 17//13 20//13 19//13
f 21//14 23//14 24//14
f 21//14 24//14 22//14
f 17//15 21//15 22//15
f 17//15 22//15 18//15
f 19//16 20//16 24//16
f 19//16 24//16 23//16
f 17//17 19//17 23//17
f 17//17 23//17 21//17
f 18//18 22//18 24//18
f 18//18 24//18 20//18
f 25//19 26//19 28//19
f 25//19 28//19 27//19
f 29//20 31//20 32//20
f 29//20 32//20 30//20
f 25//21 29//21 30//21
f 25//21 30//21 26//21
f 27//22 28//22 32//22
f 27//22 32//22 31//22
f 25//23 27//23 31//23
f 25//23 31//23 29//23
f 26//24 30//24 32//24
f 26//24 32//24 28//24
f 33//25 34//25 36//25
f 33//25 36//25 35//25
f 37//26 39//26 40//26
f 37//26 40//26 38//26
f 33//27 37//27 38//27
f 33//27 38//27 34//27
f 35//28 36//28 40//28
f 35//28 40//28 39//28
f 33//29 35//29 39//29
f 33//29 39//29 37//29
f 34//30 38//30 40//30
f 34//30 40//30 36//30
f 41//31 42//31 44//31
f 41//31 44//31 43//31
f 45//32 47//32 48//32
f 45//32 48//32 46//32
f 41//33 45//33 46//33
f 41//33 46//33 42//33
f 43//34 44//34 48//34
f 43//34 48//34 47//34
f 41//35 43//35 47//35
f 41//35 47//35 45//35
f 42//36 46//36 48//36
f 42//36 48//36 44//36
